<?xml version="1.0" encoding="UTF-8"?>
<svg version="1.1" xmlns="http://www.w3.org/2000/svg" width="500" height="127">
<path d="M0 0 C5.61 0 11.22 0 17 0 C17 0.99 17 1.98 17 3 C17.66 3 18.32 3 19 3 C21 6 21 6 21 9 C21.66 9 22.32 9 23 9 C23.66 10.98 24.32 12.96 25 15 C25.66 15 26.32 15 27 15 C29.05773809 17.96314285 30.13524935 20.54099741 31 24 C31.66 24.33 32.32 24.66 33 25 C36 29.5 36 29.5 36 32 C36.99 32.33 37.98 32.66 39 33 C40.0625 34.671875 40.0625 34.671875 41 36.75 C42.50092999 39.95968105 44.11913641 42.99061825 46 46 C47.19005558 45.02979387 47.19005558 45.02979387 47.11352539 43.26075745 C47.10828857 42.50512009 47.10305176 41.74948273 47.09765625 40.97094727 C47.09435303 40.11658585 47.0910498 39.26222443 47.08764648 38.38197327 C47.07934814 37.45283615 47.0710498 36.52369904 47.0625 35.56640625 C47.05871338 34.61813461 47.05492676 33.66986298 47.05102539 32.69285583 C47.03460131 28.6176947 47.00649452 24.54263186 46.97949219 20.4675293 C46.96147423 17.50049294 46.94933609 14.53347264 46.9375 11.56640625 C46.92920166 10.63929337 46.92090332 9.71218048 46.91235352 8.75697327 C46.90905029 7.89945969 46.90574707 7.04194611 46.90234375 6.15844727 C46.89710693 5.40201431 46.89187012 4.64558136 46.88647461 3.8662262 C47 2 47 2 48 0 C52.95 0 57.9 0 63 0 C63.02256518 9.35309182 63.04092332 18.70616564 63.05181217 28.05927849 C63.05703746 32.4019967 63.06412873 36.74469538 63.07543945 41.08740234 C63.08628085 45.27598387 63.09227951 49.46454656 63.09487724 53.65314102 C63.09672922 55.25357485 63.10034552 56.8540076 63.10573006 58.45443344 C63.1129571 60.69083661 63.11399023 62.92716131 63.11352539 65.16357422 C63.115746 66.43820526 63.11796661 67.7128363 63.12025452 69.02609253 C63 72 63 72 62 74 C56.67071399 74.9521305 51.22205063 75.832922 46 74 C41.76638894 70.37999297 39.4885364 65.00486418 37.06738281 60.09033203 C35.55746987 57.13336162 33.74500183 54.42752199 31.875 51.6875 C31.24335938 50.74390625 30.61171875 49.8003125 29.9609375 48.828125 C27.23600239 44.89813891 24.37083562 41.07795972 21.46875 37.27734375 C20 35 20 35 20 32 C19.34 32 18.68 32 18 32 C17.67 31.34 17.34 30.68 17 30 C17 44.19 17 58.38 17 73 C14.01316593 74.49341703 11.25600226 74.13175178 7.9375 74.125 C6.66777344 74.12757812 5.39804688 74.13015625 4.08984375 74.1328125 C1 74 1 74 0 73 C-0.09439978 70.73008113 -0.11742226 68.45718033 -0.11352539 66.18530273 C-0.11367142 65.47314606 -0.11381744 64.76098938 -0.1139679 64.0272522 C-0.1132687 61.66266888 -0.10547606 59.29816339 -0.09765625 56.93359375 C-0.09579209 55.29834537 -0.09436818 53.66309643 -0.09336853 52.02784729 C-0.08954318 47.71565215 -0.07971275 43.40349048 -0.06866455 39.09130859 C-0.0584508 34.69434054 -0.05387099 30.29736711 -0.04882812 25.90039062 C-0.03809049 17.26690998 -0.02049356 8.63346301 0 0 Z " fill="#1F5862" transform="translate(233,7)"/>
<path d="M0 0 C1.09074326 -0.01210762 1.09074326 -0.01210762 2.20352173 -0.02445984 C3.75203047 -0.0383281 5.30057013 -0.04903792 6.84912109 -0.05688477 C9.18259192 -0.07389816 11.51456996 -0.11772867 13.84765625 -0.16210938 C22.18750739 -0.24961378 30.4826393 -0.2863789 37.8515625 4.23828125 C38.3465625 5.72328125 38.3465625 5.72328125 38.8515625 7.23828125 C39.8415625 7.56828125 40.8315625 7.89828125 41.8515625 8.23828125 C44.40003478 13.25613529 45.07695875 18.65778088 44.8515625 24.23828125 C43.8379027 27.27450168 42.55965378 29.49498313 40.8515625 32.23828125 C40.1915625 32.23828125 39.5315625 32.23828125 38.8515625 32.23828125 C38.5215625 33.55828125 38.1915625 34.87828125 37.8515625 36.23828125 C38.6146875 36.81578125 39.3778125 37.39328125 40.1640625 37.98828125 C43.52973864 40.80605662 45.55290987 42.68742082 46.3984375 47.078125 C46.46546875 48.10035156 46.5325 49.12257812 46.6015625 50.17578125 C46.67890625 51.19542969 46.75625 52.21507812 46.8359375 53.265625 C46.87269057 60.25789669 44.41390647 64.1320082 39.8515625 69.23828125 C33.82553998 73.87368319 26.85405156 74.53749588 19.51171875 74.43359375 C18.74476181 74.43076385 17.97780487 74.42793396 17.18760681 74.42501831 C14.76292629 74.413916 12.33862941 74.38883092 9.9140625 74.36328125 C8.259771 74.35323855 6.60547365 74.34411497 4.95117188 74.3359375 C0.91782327 74.31400942 -3.1152423 74.27954968 -7.1484375 74.23828125 C-8.60616644 71.32282338 -8.27576602 68.76554845 -8.27783203 65.50952148 C-8.27958435 64.81833221 -8.28133667 64.12714294 -8.28314209 63.41500854 C-8.28755092 61.12560532 -8.28462634 58.83627904 -8.28125 56.546875 C-8.28192324 54.96029139 -8.28289343 53.37370789 -8.28414917 51.78712463 C-8.28562476 48.46069355 -8.28347573 45.1342893 -8.27880859 41.80786133 C-8.27310674 37.53473244 -8.27639406 33.26166629 -8.28238106 28.9885397 C-8.28598644 25.71242292 -8.28484827 22.43632115 -8.28225327 19.16020393 C-8.28158417 17.58406632 -8.2824118 16.00792736 -8.28473282 14.43179131 C-8.28725948 12.23370608 -8.28341881 10.03572399 -8.27783203 7.83764648 C-8.27703644 6.58459213 -8.27624084 5.33153778 -8.27542114 4.04051208 C-8.03321699 -1.30436494 -4.39424722 0.04610537 0 0 Z M7.8515625 14.23828125 C7.8515625 19.18828125 7.8515625 24.13828125 7.8515625 29.23828125 C17.86500552 30.84486739 17.86500552 30.84486739 26.8515625 27.23828125 C29.19679185 24.35315147 29.19679185 24.35315147 28.7265625 20.73828125 C28.16954946 17.23470836 28.16954946 17.23470836 25.9765625 15.36328125 C22.48591832 13.51529315 19.74136261 13.10170446 15.8515625 13.11328125 C14.9853125 13.11070313 14.1190625 13.108125 13.2265625 13.10546875 C10.70144555 13.1423392 10.70144555 13.1423392 7.8515625 14.23828125 Z M7.8515625 42.23828125 C7.8515625 47.84828125 7.8515625 53.45828125 7.8515625 59.23828125 C15.20393054 61.6890706 21.70333948 61.64219697 28.8515625 58.23828125 C31.02176542 56.14906369 31.02176542 56.14906369 31.8515625 53.23828125 C31.31339933 49.3365983 30.75427253 47.08457191 27.8515625 44.36328125 C21.40424022 41.9455354 14.66500236 42.23828125 7.8515625 42.23828125 Z " fill="#1D5760" transform="translate(66.1484375,6.76171875)"/>
<path d="M0 0 C2.08034049 1.90049797 3.40503137 3.63327235 5 6 C5 6.66 5 7.32 5 8 C5.66 8 6.32 8 7 8 C10.0788551 14.92742398 11.45794098 21.62617707 9 29 C1.27214866 29.96953382 -6.34333901 30.12131488 -14.125 30.0625 C-15.27226562 30.05798828 -16.41953125 30.05347656 -17.6015625 30.04882812 C-20.40109813 30.03716339 -23.20051986 30.02079614 -26 30 C-24.93941272 34.23519357 -24.93941272 34.23519357 -22.2578125 37.53125 C-15.49197394 40.60437814 -10.06807225 39.95457864 -3 38 C-2.11828125 37.64164063 -1.2365625 37.28328125 -0.328125 36.9140625 C2 36 2 36 5 36 C5 36.99 5 37.98 5 39 C5.66 39 6.32 39 7 39 C7.8125 42.25 7.8125 42.25 8 46 C4.8606737 49.5198507 1.45815352 50.72624185 -3 52 C-3.928125 52.37125 -4.85625 52.7425 -5.8125 53.125 C-14.25882789 55.44359981 -21.88695277 53.73599875 -29.50390625 49.66015625 C-32.13421844 47.91073109 -34.07161925 46.09097445 -36.1875 43.75 C-36.86167969 43.02296875 -37.53585937 42.2959375 -38.23046875 41.546875 C-43.35886344 34.16560936 -43.09116727 23.65601864 -42 15 C-40.12528065 9.18991936 -36.57759886 4.99072722 -32 1 C-31.4225 0.46375 -30.845 -0.0725 -30.25 -0.625 C-20.46093407 -6.60720696 -9.68035995 -6.07880871 0 0 Z M-25 13 C-25.94436349 15.16531168 -25.94436349 15.16531168 -26 17 C-19.03220597 18.32719886 -12.07011089 18.08825381 -5 18 C-6.75224331 12.1521727 -6.75224331 12.1521727 -11 8 C-17.63323266 7.03711139 -20.45353014 8.12086162 -25 13 Z " fill="#185660" transform="translate(344,29)"/>
<path d="M0 0 C0.98484375 0.01804687 1.9696875 0.03609375 2.984375 0.0546875 C4.10585937 0.08949219 4.10585937 0.08949219 5.25 0.125 C5.25 0.785 5.25 1.445 5.25 2.125 C5.91 2.125 6.57 2.125 7.25 2.125 C4.8237144 10.59861866 1.88643883 18.82934808 -1.25 27.0625 C-2.50160071 30.36401972 -3.59776395 33.70424727 -4.6875 37.0625 C-6.14587985 41.48200092 -7.79422362 45.69767398 -9.7578125 49.9140625 C-10.82161912 52.28459221 -11.71855032 54.6903211 -12.625 57.125 C-15.77037387 64.93378533 -19.39915163 71.47289715 -27.16796875 75.32421875 C-32.18792772 76.88108953 -38.93089378 77.53455311 -43.75 75.125 C-43.75 71.165 -43.75 67.205 -43.75 63.125 C-41.0593858 62.2281286 -38.86102904 61.84640874 -36.0625 61.5625 C-35.25425781 61.47871094 -34.44601563 61.39492187 -33.61328125 61.30859375 C-32.99839844 61.24800781 -32.38351563 61.18742187 -31.75 61.125 C-31.440625 60.196875 -31.13125 59.26875 -30.8125 58.3125 C-30.125 56.25 -29.4375 54.1875 -28.75 52.125 C-29.26516281 50.26966356 -29.26516281 50.26966356 -30.2265625 48.3515625 C-30.56510254 47.61591064 -30.90364258 46.88025879 -31.25244141 46.12231445 C-31.62288574 45.33945068 -31.99333008 44.55658691 -32.375 43.75 C-33.12747414 42.11181128 -33.87746601 40.47248014 -34.625 38.83203125 C-35.17607422 37.62474365 -35.17607422 37.62474365 -35.73828125 36.39306641 C-37.49888186 32.44616011 -39.00994074 28.41347476 -40.5234375 24.3671875 C-42.20195759 19.93033504 -43.98688889 15.53783658 -45.78369141 11.14770508 C-48.28691712 4.96478766 -48.28691712 4.96478766 -48.75 2.125 C-46.81259347 0.18759347 -43.44840128 0.8624945 -40.875 0.8125 C-39.61945313 0.77511719 -38.36390625 0.73773437 -37.0703125 0.69921875 C-33.75 1.125 -33.75 1.125 -31.93359375 2.85546875 C-28.51260806 9.41518059 -26.36093427 15.87388911 -25.2421875 23.19140625 C-25.07976562 23.82949219 -24.91734375 24.46757813 -24.75 25.125 C-24.09 25.455 -23.43 25.785 -22.75 26.125 C-22.01924352 28.4390622 -21.34861742 30.77328869 -20.75 33.125 C-20.09642722 31.89993102 -19.45251767 30.66970484 -18.8125 29.4375 C-18.45285156 28.75300781 -18.09320313 28.06851563 -17.72265625 27.36328125 C-16.66572946 24.93107624 -16.25796703 22.73014519 -15.75 20.125 C-14.8881808 17.03751893 -13.91887359 13.98876826 -12.9375 10.9375 C-12.68935547 10.11830078 -12.44121094 9.29910156 -12.18554688 8.45507812 C-11.93224609 7.67197266 -11.67894531 6.88886719 -11.41796875 6.08203125 C-11.19391357 5.37022705 -10.9698584 4.65842285 -10.73901367 3.92504883 C-8.42706155 -0.28280677 -4.34618644 -0.10348063 0 0 Z " fill="#1A555F" transform="translate(220.75,25.875)"/>
<path d="M0 0 C2.01090334 2.01090334 1.20863389 6.06966956 1.24609375 8.83203125 C1.27904085 10.4511771 1.31225235 12.0703176 1.34570312 13.68945312 C1.39307748 16.25036814 1.437481 18.81126274 1.47680664 21.37231445 C1.51657661 23.83829057 1.56811994 26.30380838 1.62109375 28.76953125 C1.6295079 29.53320511 1.63792206 30.29687897 1.64659119 31.08369446 C1.73409962 34.85502979 1.89478765 37.79664487 4 41 C5.58323688 41.027193 7.16661062 41.04648306 8.75 41.0625 C9.63171875 41.07410156 10.5134375 41.08570313 11.421875 41.09765625 C14.26953476 41.07827821 14.26953476 41.07827821 18 40 C18 27.46 18 14.92 18 2 C24.08257262 0.26212211 27.05308227 -0.30759919 33 0 C34.66716684 1.66716684 34.12744882 3.6730614 34.12939453 5.96289062 C34.13254669 7.02068726 34.13569885 8.07848389 34.13894653 9.16833496 C34.1369223 10.31934692 34.13489807 11.47035889 34.1328125 12.65625 C34.13376923 13.82885376 34.13472595 15.00145752 34.13571167 16.20959473 C34.1363937 18.69458062 34.13453784 21.17956829 34.13037109 23.66455078 C34.12502319 27.48343887 34.13031536 31.30220935 34.13671875 35.12109375 C34.13605797 37.52864609 34.13477682 39.93619837 34.1328125 42.34375 C34.13483673 43.49476196 34.13686096 44.64577393 34.13894653 45.83166504 C34.13421829 47.41835999 34.13421829 47.41835999 34.12939453 49.03710938 C34.12859894 49.97341187 34.12780334 50.90971436 34.12698364 51.87438965 C34 54 34 54 33 55 C30.89778307 55.09968672 28.79207396 55.12968203 26.6875 55.125 C25.53636719 55.12757812 24.38523438 55.13015625 23.19921875 55.1328125 C20 55 20 55 17.8203125 54.40234375 C15.45589542 53.87973654 14.36619862 54.43911468 12.1875 55.4375 C6.92580308 57.55192265 2.90773153 57.56897256 -2.5625 55.9375 C-8.85167739 52.39269092 -12.24752951 47.79862354 -14.41113281 40.95654297 C-15.59081016 35.03370187 -15.36262696 28.97501037 -15.28125 22.95947266 C-15.24979305 20.60954039 -15.24023931 18.26027933 -15.234375 15.91015625 C-15.22521472 14.41145013 -15.21484207 12.91275081 -15.203125 11.4140625 C-15.19887512 10.71407135 -15.19462524 10.0140802 -15.19024658 9.2928772 C-15.14553283 6.26110637 -14.96650031 3.89950094 -14 1 C-9.23258627 0.04651725 -4.84034716 -0.16407956 0 0 Z " fill="#3A6C73" transform="translate(133,26)"/>
<path d="M0 0 C0 0.66 0 1.32 0 2 C0.66 2.33 1.32 2.66 2 3 C1.43545368 4.48643845 0.84765111 5.96406016 0.25 7.4375 C-0.07484375 8.26121094 -0.3996875 9.08492187 -0.734375 9.93359375 C-2 12 -2 12 -4.00390625 12.83984375 C-6.7278179 13.05839635 -8.45902727 12.01638909 -11 11 C-16.1129982 9.9755377 -20.26214371 9.40182074 -25 12 C-24.67 12.99 -24.34 13.98 -24 15 C-21.21916529 16.152504 -21.21916529 16.152504 -17.875 17 C-13.04763272 18.38076512 -8.54755505 19.88485812 -4 22 C-4 22.66 -4 23.32 -4 24 C-3.401875 24.268125 -2.80375 24.53625 -2.1875 24.8125 C0.64062129 26.34776584 2.49111277 27.70465068 3.6875 30.75 C4.57727615 37.1563883 4.05760331 41.0522471 0.4453125 46.3984375 C-1 48 -1 48 -3.8125 49 C-4.534375 49 -5.25625 49 -6 49 C-6 49.66 -6 50.32 -6 51 C-14.76964617 54.558697 -23.00654207 55.4711592 -32 52 C-35.72433187 50.0973522 -39.37477989 48.08466545 -43 46 C-41.68938409 41.76570244 -40.05643741 37.92592596 -38 34 C-37.2265625 34.433125 -37.2265625 34.433125 -36.4375 34.875 C-33.36919071 36.29114275 -30.2612929 37.1264394 -27 38 C-26.360625 38.20625 -25.72125 38.4125 -25.0625 38.625 C-21.1531826 39.33578498 -16.59362578 39.79681289 -13 38 C-13.2253643 36.03305899 -13.2253643 36.03305899 -14 34 C-16.73259989 32.83102127 -19.29323212 31.90776851 -22.125 31.0625 C-29.23797053 28.91021323 -35.42079269 26.57761013 -39.9375 20.3125 C-41.39958147 15.754246 -41.94134634 11.72914472 -41 7 C-37.49637417 0.99535826 -32.60264699 -2.09539029 -26 -4 C-16.90154683 -6.06002713 -8.65758559 -2.71114371 0 0 Z " fill="#215962" transform="translate(398,29)"/>
<path d="M0 0 C2.041875 0.0309375 2.041875 0.0309375 4.125 0.0625 C4.125 5.3425 4.125 10.6225 4.125 16.0625 C8.415 16.0625 12.705 16.0625 17.125 16.0625 C18.23368317 19.38854951 18.66677532 22.59308454 19.125 26.0625 C15.77560119 28.08808881 13.25537449 28.27988987 9.375 28.1875 C8.39015625 28.16945313 7.4053125 28.15140625 6.390625 28.1328125 C5.64296875 28.10960938 4.8953125 28.08640625 4.125 28.0625 C4.26361026 32.50025675 4.41211864 36.93762777 4.5625 41.375 C4.60181641 42.63763672 4.64113281 43.90027344 4.68164062 45.20117188 C4.72353516 46.40966797 4.76542969 47.61816406 4.80859375 48.86328125 C4.84525146 49.97872314 4.88190918 51.09416504 4.91967773 52.2434082 C5.01431209 55.14123571 5.01431209 55.14123571 6.125 58.0625 C9.425 57.4025 12.725 56.7425 16.125 56.0625 C16.455 57.0525 16.785 58.0425 17.125 59.0625 C17.785 59.0625 18.445 59.0625 19.125 59.0625 C19.11215051 62.48688911 18.92572775 65.72523872 18.125 69.0625 C14.22576891 72.46182967 9.66724734 72.64610404 4.65234375 72.47265625 C-1.11016143 71.5374738 -4.53123137 68.37916091 -8.5859375 64.40625 C-12.65290869 58.51970182 -11.38540591 50.46955717 -11.1875 43.625 C-11.16238916 42.11527125 -11.13958088 40.60550234 -11.11914062 39.09570312 C-11.06435733 35.41712716 -10.97824012 31.74007192 -10.875 28.0625 C-12.174375 27.918125 -13.47375 27.77375 -14.8125 27.625 C-18.75 27.1875 -18.75 27.1875 -19.875 26.0625 C-19.9729057 24.56511876 -20.00474864 23.06307108 -20 21.5625 C-20.00257813 20.7478125 -20.00515625 19.933125 -20.0078125 19.09375 C-19.875 17.0625 -19.875 17.0625 -18.875 16.0625 C-15.87168982 15.92056663 -12.88282866 16.02013622 -9.875 16.0625 C-10.205 11.1125 -10.535 6.1625 -10.875 1.0625 C-6.91591662 0.40265277 -3.87795662 -0.05875692 0 0 Z " fill="#18535D" transform="translate(421.875,10.9375)"/>
<path d="M0 0 C4.95 0 9.9 0 15 0 C15.02256518 9.35309182 15.04092332 18.70616564 15.05181217 28.05927849 C15.05703746 32.4019967 15.06412873 36.74469538 15.07543945 41.08740234 C15.08628085 45.27598387 15.09227951 49.46454656 15.09487724 53.65314102 C15.09672922 55.25357485 15.10034552 56.8540076 15.10573006 58.45443344 C15.1129571 60.69083661 15.11399023 62.92716131 15.11352539 65.16357422 C15.115746 66.43820526 15.11796661 67.7128363 15.12025452 69.02609253 C15 72 15 72 14 74 C8.6889869 74.94886586 3.18722852 75.89791831 -2 74 C-6.24732244 70.21312814 -8.7257258 64.89686755 -11.10888672 59.80932617 C-12.07904811 57.74059983 -12.07904811 57.74059983 -14 55 C-14.44111565 53.11845117 -14.8109267 51.21937362 -15.125 49.3125 C-15.29257812 48.31863281 -15.46015625 47.32476562 -15.6328125 46.30078125 C-15.75398438 45.54152344 -15.87515625 44.78226563 -16 44 C-16.66 44 -17.32 44 -18 44 C-18 43.34 -18 42.68 -18 42 C-17.34 42 -16.68 42 -16 42 C-16 41.34 -16 40.68 -16 40 C-13.66633067 37.98821609 -11.95214486 36.98404829 -9 36 C-9 36.99 -9 37.98 -9 39 C-8.01 39 -7.02 39 -6 39 C-4.68 41.31 -3.36 43.62 -2 46 C-0.80994442 45.02979387 -0.80994442 45.02979387 -0.88647461 43.26075745 C-0.89432983 42.12730141 -0.89432983 42.12730141 -0.90234375 40.97094727 C-0.90564697 40.11658585 -0.9089502 39.26222443 -0.91235352 38.38197327 C-0.92065186 37.45283615 -0.9289502 36.52369904 -0.9375 35.56640625 C-0.94128662 34.61813461 -0.94507324 33.66986298 -0.94897461 32.69285583 C-0.96539869 28.6176947 -0.99350548 24.54263186 -1.02050781 20.4675293 C-1.03852577 17.50049294 -1.05066391 14.53347264 -1.0625 11.56640625 C-1.07079834 10.63929337 -1.07909668 9.71218048 -1.08764648 8.75697327 C-1.09094971 7.89945969 -1.09425293 7.04194611 -1.09765625 6.15844727 C-1.10551147 5.02379784 -1.10551147 5.02379784 -1.11352539 3.8662262 C-1 2 -1 2 0 0 Z " fill="#18545E" transform="translate(281,7)"/>
<path d="M0 0 C1.66716684 1.66716684 1.12744882 3.6730614 1.12939453 5.96289062 C1.13254669 7.02068726 1.13569885 8.07848389 1.13894653 9.16833496 C1.1369223 10.31934692 1.13489807 11.47035889 1.1328125 12.65625 C1.13424759 14.41515564 1.13424759 14.41515564 1.13571167 16.20959473 C1.1363937 18.69458062 1.13453784 21.17956829 1.13037109 23.66455078 C1.12502319 27.48343887 1.13031536 31.30220935 1.13671875 35.12109375 C1.13605797 37.52864609 1.13477682 39.93619837 1.1328125 42.34375 C1.13483673 43.49476196 1.13686096 44.64577393 1.13894653 45.83166504 C1.13579437 46.88946167 1.13264221 47.9472583 1.12939453 49.03710938 C1.12859894 49.97341187 1.12780334 50.90971436 1.12698364 51.87438965 C1 54 1 54 0 55 C-2.18639453 55.07258946 -4.37500389 55.08373783 -6.5625 55.0625 C-8.35880859 55.04896484 -8.35880859 55.04896484 -10.19140625 55.03515625 C-11.11824219 55.02355469 -12.04507813 55.01195312 -13 55 C-14.1796875 49.359375 -14.1796875 49.359375 -12.5625 46.125 C-12.046875 45.42375 -11.53125 44.7225 -11 44 C-12.32 43.67 -13.64 43.34 -15 43 C-15 42.34 -15 41.68 -15 41 C-14.01 40.505 -14.01 40.505 -13 40 C-13 27.13 -13 14.26 -13 1 C-8.29784261 0.05956852 -4.73251153 -0.15775038 0 0 Z " fill="#0F4B56" transform="translate(166,26)"/>
<path d="M0 0 C0.66 0.33 1.32 0.66 2 1 C2 2.98 2 4.96 2 7 C5.55955169 7 6.27899173 6.10658705 9 4 C9.66 4 10.32 4 11 4 C12.625 6.5 12.625 6.5 14 9 C9.88621444 16.68490153 9.88621444 16.68490153 6.1875 18 C5.465625 18 4.74375 18 4 18 C4 18.66 4 19.32 4 20 C-4.76964617 23.558697 -13.00654207 24.4711592 -22 21 C-25.72433187 19.0973522 -29.37477989 17.08466545 -33 15 C-31.68938409 10.76570244 -30.05643741 6.92592596 -28 3 C-27.484375 3.28875 -26.96875 3.5775 -26.4375 3.875 C-23.36919071 5.29114275 -20.2612929 6.1264394 -17 7 C-16.360625 7.20625 -15.72125 7.4125 -15.0625 7.625 C-11.1531826 8.33578498 -6.59362578 8.79681289 -3 7 C-3.57344937 4.13275314 -3.8614515 3.1385485 -6 1 C-4.7934375 1.0309375 -4.7934375 1.0309375 -3.5625 1.0625 C-1.06645115 1.29633621 -1.06645115 1.29633621 0 0 Z " fill="#265C65" transform="translate(388,60)"/>
<path d="M0 0 C4.62 0 9.24 0 14 0 C13.87941058 6.53897078 13.75509018 13.07785766 13.62768555 19.61669922 C13.58505674 21.82924599 13.54335194 24.04181082 13.50268555 26.25439453 C13.21522677 41.84814606 12.71496419 57.41992139 12 73 C7.38 73 2.76 73 -2 73 C-2 72.67 -2 72.34 -2 72 C2.29 72 6.58 72 11 72 C10.67 61.11 10.34 50.22 10 39 C9.01 38.67 8.02 38.34 7 38 C6.566875 38.66 6.13375 39.32 5.6875 40 C5.130625 40.66 4.57375 41.32 4 42 C3.01 42 2.02 42 1 42 C-0.13702786 37.47942904 -0.12814634 33.04660217 -0.09765625 28.41796875 C-0.0962413 27.60378983 -0.09482635 26.7896109 -0.09336853 25.95075989 C-0.08779317 23.36296844 -0.07524524 20.77526508 -0.0625 18.1875 C-0.05748181 16.42773563 -0.05291946 14.66796989 -0.04882812 12.90820312 C-0.03783181 8.60543506 -0.02058421 4.30273244 0 0 Z " fill="#104A54" transform="translate(282,7)"/>
<path d="M0 0 C2 2 2 2 2.38671875 3.9765625 C2.82891417 6.11575835 2.82891417 6.11575835 4.64453125 7.3359375 C11.45792243 10.60145471 16.82118201 9.98520386 24 8 C25.32257813 7.46246094 25.32257813 7.46246094 26.671875 6.9140625 C29 6 29 6 32 6 C32 6.99 32 7.98 32 9 C32.66 9 33.32 9 34 9 C34.8125 12.25 34.8125 12.25 35 16 C31.8606737 19.5198507 28.45815352 20.72624185 24 22 C23.071875 22.37125 22.14375 22.7425 21.1875 23.125 C12.49039434 25.51244077 4.93347892 23.51922328 -2.9375 19.5 C-5 18 -5 18 -7 15 C-2.545 15.99 -2.545 15.99 2 17 C1.59527765 11.73860941 0.89479492 9.51787928 -3 6 C-3 5.01 -3 4.02 -3 3 C-2.34 3 -1.68 3 -1 3 C-0.67 2.01 -0.34 1.02 0 0 Z " fill="#1D5761" transform="translate(317,59)"/>
<path d="M0 0 C2.97 0.33 5.94 0.66 9 1 C9.99 1 10.98 1 12 1 C12.33 1 12.66 1 13 1 C13 12.22 13 23.44 13 35 C13.66 35 14.32 35 15 35 C14.62492618 37.71928517 14.15781339 38.84218661 12.1875 40.8125 C10 42 10 42 7.75 41.6875 C7.1725 41.460625 6.595 41.23375 6 41 C5.67 41.66 5.34 42.32 5 43 C4.54625 42.505 4.0925 42.01 3.625 41.5 C2.12364481 39.77390663 2.12364481 39.77390663 0 40 C0 26.8 0 13.6 0 0 Z " fill="#0C4A55" transform="translate(120,28)"/>
<path d="M0 0 C0.66 0.33 1.32 0.66 2 1 C2 1.99 2 2.98 2 4 C5.7763932 4.2981424 5.7763932 4.2981424 8 3 C8.33 2.34 8.66 1.68 9 1 C9.33 1.99 9.66 2.98 10 4 C12.01508358 4.73323796 12.01508358 4.73323796 14 5 C14.22281874 6.91503674 14.42771076 8.83216506 14.625 10.75 C14.79902344 12.35101563 14.79902344 12.35101563 14.9765625 13.984375 C15.00053889 17.06933714 14.79570817 18.5207642 13 21 C12.01 21.33 11.02 21.66 10 22 C9.26676204 24.01508358 9.26676204 24.01508358 9 26 C7.02 26.33 5.04 26.66 3 27 C2.67 26.01 2.34 25.02 2 24 C1.01 23.34 0.02 22.68 -1 22 C-1 21.67 -1 21.34 -1 21 C-1.99 21.66 -2.98 22.32 -4 23 C-6.26171875 23.1953125 -6.26171875 23.1953125 -8.6875 23.125 C-9.89986328 23.09792969 -9.89986328 23.09792969 -11.13671875 23.0703125 C-11.75160156 23.04710938 -12.36648437 23.02390625 -13 23 C-13 22.67 -13 22.34 -13 22 C-9.7 21.67 -6.4 21.34 -3 21 C-2.855625 20.071875 -2.71125 19.14375 -2.5625 18.1875 C-2 15 -2 15 -1 12 C-1.63028587 10.31923769 -2.29788106 8.65204456 -3 7 C-3 6.01 -3 5.02 -3 4 C-3.99 3.67 -4.98 3.34 -6 3 C-4.02 2.67 -2.04 2.34 0 2 C0 1.34 0 0.68 0 0 Z " fill="#134E58" transform="translate(98,46)"/>
<path d="M0 0 C3.3 0 6.6 0 10 0 C10.33 1.32 10.66 2.64 11 4 C12.65 3.67 14.3 3.34 16 3 C16 4.32 16 5.64 16 7 C17.32 7 18.64 7 20 7 C22.00070526 9.50088157 22.89854608 11.40576987 23.4375 14.5625 C22.85313352 17.81825608 21.47814722 18.87587381 19 21 C18.4225 21.5775 17.845 22.155 17.25 22.75 C16.8375 23.1625 16.425 23.575 16 24 C14.64560332 21.29120665 14.93498549 18.99066732 15 16 C14.34 16 13.68 16 13 16 C13 15.34 13 14.68 13 14 C7.02903158 11.46686188 1.5427793 9.68084003 -5 10 C-4.67 9.01 -4.34 8.02 -4 7 C-3.01 7 -2.02 7 -1 7 C-0.67 4.69 -0.34 2.38 0 0 Z " fill="#0F4D58" transform="translate(325,26)"/>
<path d="M0 0 C2.31 0.66 4.62 1.32 7 2 C7 2.66 7 3.32 7 4 C7.598125 4.268125 8.19625 4.53625 8.8125 4.8125 C11.66955379 6.36347206 13.43124896 7.77499777 14.8125 10.75 C15.09063286 14.0875943 14.02972034 16.8502672 13 20 C12.67 20 12.34 20 12 20 C12 18.35 12 16.7 12 15 C8.27385847 16.11854586 8.27385847 16.11854586 6 19 C5.34 19.33 4.68 19.66 4 20 C2 18 2 18 1.875 14.875 C1.91625 13.92625 1.9575 12.9775 2 12 C1.01 12.495 1.01 12.495 0 13 C-1.89213403 12.59373098 -3.76666849 12.10271265 -5.625 11.5625 C-7.12933594 11.13130859 -7.12933594 11.13130859 -8.6640625 10.69140625 C-9.43492187 10.46324219 -10.20578125 10.23507813 -11 10 C-10.01 9.34 -9.02 8.68 -8 8 C-8.66 6.68 -9.32 5.36 -10 4 C-9.01 3.34 -8.02 2.68 -7 2 C-6.67 2.33 -6.34 2.66 -6 3 C-3.66702567 3.04092937 -1.33294775 3.04241723 1 3 C0.67 2.01 0.34 1.02 0 0 Z " fill="#1F5760" transform="translate(387,49)"/>
<path d="M0 0 C0.66 0.33 1.32 0.66 2 1 C1.98715051 4.42438911 1.80072775 7.66273872 1 11 C-3.10281962 14.57681711 -7.62308945 14.29776201 -12.828125 14.203125 C-15 14 -15 14 -17 13 C-17.5625 11.1875 -17.5625 11.1875 -18 9 C-18.28875 8.360625 -18.5775 7.72125 -18.875 7.0625 C-19 5 -19 5 -17.4375 2.25 C-12.99376497 -1.88902177 -5.59501381 -0.49638906 0 0 Z " fill="#0E4B56" transform="translate(439,69)"/>
<path d="M0 0 C0 0.33 0 0.66 0 1 C-3.3 1 -6.6 1 -10 1 C-10.33 3.31 -10.66 5.62 -11 8 C-11.99 8.33 -12.98 8.66 -14 9 C-14.33 9.66 -14.66 10.32 -15 11 C-14.13375 10.814375 -13.2675 10.62875 -12.375 10.4375 C-8.94847372 9.99332067 -6.35787629 10.28045508 -3 11 C-3.33 11.66 -3.66 12.32 -4 13 C-4.86625 12.9175 -5.7325 12.835 -6.625 12.75 C-10.77649189 13.05751792 -12.63056775 14.65604713 -16 17 C-17.32 17 -18.64 17 -20 17 C-20.33 17.66 -20.66 18.32 -21 19 C-21.66 18.67 -22.32 18.34 -23 18 C-24.32860925 17.64830932 -25.66158328 17.31229724 -27 17 C-26.67 15.02 -26.34 13.04 -26 11 C-26.99 11.66 -27.98 12.32 -29 13 C-26.89116736 7.82377442 -23.48871514 4.71777337 -18.5 2.3125 C-17.345 1.879375 -16.19 1.44625 -15 1 C-14.236875 0.5875 -13.47375 0.175 -12.6875 -0.25 C-8.43068478 -1.43794843 -4.32669522 -0.6216999 0 0 Z M-9 3 C-7 4 -7 4 -7 4 Z " fill="#33656D" transform="translate(335,25)"/>
<path d="M0 0 C2.56016973 0.33708901 4.90899698 0.5625 7.5 0.5625 C7.5 1.2225 7.5 1.8825 7.5 2.5625 C8.82 2.8925 10.14 3.2225 11.5 3.5625 C11.5 4.8825 11.5 6.2025 11.5 7.5625 C10.51 7.5625 9.52 7.5625 8.5 7.5625 C8.17 8.8825 7.84 10.2025 7.5 11.5625 C1.875 12.6875 1.875 12.6875 -1.5 11.5625 C-1.5 10.9025 -1.5 10.2425 -1.5 9.5625 C-3.15 9.5625 -4.8 9.5625 -6.5 9.5625 C-6.5 6.5625 -6.5 6.5625 -5.5 4.5625 C-6.82 4.2325 -8.14 3.9025 -9.5 3.5625 C-6.7079516 -0.62557259 -4.6661111 -0.629925 0 0 Z " fill="#0E4E5A" transform="translate(383.5,27.4375)"/>
<path d="M0 0 C1 1 1 1 1.11352539 4.41821289 C1.11336628 5.93636988 1.10767226 7.45453229 1.09765625 8.97265625 C1.0962413 9.77029892 1.09482635 10.56794159 1.09336853 11.38975525 C1.08775316 13.94737435 1.07519812 16.50490718 1.0625 19.0625 C1.05748698 20.79231645 1.05292373 22.52213426 1.04882812 24.25195312 C1.03777875 28.50133553 1.02050386 32.75065312 1 37 C0.01 37 -0.98 37 -2 37 C-2 26.11 -2 15.22 -2 4 C-5.63 3.34 -9.26 2.68 -13 2 C-13 15.53 -13 29.06 -13 43 C-15.5066559 39.24001615 -15.27146543 36.28826209 -15.23046875 31.9375 C-15.22978142 30.75595337 -15.22978142 30.75595337 -15.2290802 29.55053711 C-15.22606109 27.88621513 -15.21818496 26.2218959 -15.20581055 24.55761719 C-15.18756919 22.00966381 -15.18530083 19.46207433 -15.18554688 16.9140625 C-15.18063082 15.29687186 -15.17480212 13.67968368 -15.16796875 12.0625 C-15.16685593 11.29993896 -15.1657431 10.53737793 -15.16459656 9.75170898 C-15.13607514 6.57387877 -15.01219326 4.03657979 -14 1 C-9.23258627 0.04651725 -4.84034716 -0.16407956 0 0 Z " fill="#64848A" transform="translate(133,26)"/>
<path d="M0 0 C0 0.66 0 1.32 0 2 C0.66 2.33 1.32 2.66 2 3 C1.43545368 4.48643845 0.84765111 5.96406016 0.25 7.4375 C-0.07484375 8.26121094 -0.3996875 9.08492187 -0.734375 9.93359375 C-2 12 -2 12 -4.03125 12.875 C-6 13 -6 13 -7.75 11.5625 C-8.1625 11.046875 -8.575 10.53125 -9 10 C-8.34 10 -7.68 10 -7 10 C-6.67 8.35 -6.34 6.7 -6 5 C-5.01 5.33 -4.02 5.66 -3 6 C-3.33 4.68 -3.66 3.36 -4 2 C-5.32 2 -6.64 2 -8 2 C-8.99 1.34 -9.98 0.68 -11 0 C-16.38903693 -0.91339609 -21.54236364 -1.09745779 -27 -1 C-26.67 -1.99 -26.34 -2.98 -26 -4 C-16.8377737 -5.94940985 -8.73892801 -2.73661629 0 0 Z " fill="#246169" transform="translate(398,29)"/>
<path d="M0 0 C4.95 0 9.9 0 15 0 C10.25 6.75 10.25 6.75 8 9 C8.66 9.66 9.32 10.32 10 11 C5.05 10.67 0.1 10.34 -5 10 C-5 9.67 -5 9.34 -5 9 C-3.35 8.67 -1.7 8.34 0 8 C-0.37125 7.4225 -0.7425 6.845 -1.125 6.25 C-1.558125 5.13625 -1.558125 5.13625 -2 4 C-1.34 2.68 -0.68 1.36 0 0 Z " fill="#0E4B56" transform="translate(82,9)"/>
<path d="M0 0 C3.63 0 7.26 0 11 0 C11 0.66 11 1.32 11 2 C11.66 2 12.32 2 13 2 C10.96152781 9.11920969 8.59632871 16.06602975 6 23 C5.73058594 23.72316406 5.46117187 24.44632813 5.18359375 25.19140625 C4.4593678 27.12899506 3.7301741 29.06464608 3 31 C2.4372171 32.49989388 1.87471208 33.99989206 1.3125 35.5 C0.879375 36.655 0.44625 37.81 0 39 C-1.06546953 35.8035914 -1.07427838 33.34252724 -1 30 C-0.34 29.67 0.32 29.34 1 29 C1.39193511 26.97304618 1.39193511 26.97304618 1.5 24.625 C1.72941463 21.10348536 1.95292864 20.07060704 4 17 C4.38499891 15.34450469 4.72793135 13.6777567 5 12 C5.99 11.67 6.98 11.34 8 11 C8 9.68 8 8.36 8 7 C7.34 6.34 6.68 5.68 6 5 C6.33 4.67 6.66 4.34 7 4 C4.69 3.01 2.38 2.02 0 1 C0 0.67 0 0.34 0 0 Z " fill="#3D6C6A" transform="translate(215,26)"/>
<path d="M0 0 C0.66 0.33 1.32 0.66 2 1 C2 1.99 2 2.98 2 4 C5.7763932 4.2981424 5.7763932 4.2981424 8 3 C8.33 2.34 8.66 1.68 9 1 C9.33 1.99 9.66 2.98 10 4 C10.66 4 11.32 4 12 4 C12 4.66 12 5.32 12 6 C10.02 6.33 8.04 6.66 6 7 C6 7.66 6 8.32 6 9 C6.66 9 7.32 9 8 9 C7.67 10.32 7.34 11.64 7 13 C5 13 3 13 1 13 C-3 7.70588235 -3 7.70588235 -3 4 C-3.99 3.67 -4.98 3.34 -6 3 C-4.02 2.67 -2.04 2.34 0 2 C0 1.34 0 0.68 0 0 Z " fill="#104D57" transform="translate(98,46)"/>
<path d="M0 0 C0 0.99 0 1.98 0 3 C0.66 3 1.32 3 2 3 C1.67 4.65 1.34 6.3 1 8 C0.34 8 -0.32 8 -1 8 C-1 8.66 -1 9.32 -1 10 C-1.66 10 -2.32 10 -3 10 C-3 10.66 -3 11.32 -3 12 C-4.32 12 -5.64 12 -7 12 C-8.8125 10.1875 -8.8125 10.1875 -10 8 C-9.09014862 5.27044585 -8.17486497 2.62616876 -7 0 C-4.3333581 -1.33332095 -2.83319697 -0.67102033 0 0 Z " fill="#165460" transform="translate(185,30)"/>
<path d="M0 0 C1.32 1.32 2.64 2.64 4 4 C3.01 5.32 2.02 6.64 1 8 C1.66 9.32 2.32 10.64 3 12 C-0.63195496 13.21065165 -2.06531629 12.62784815 -5.6875 11.5625 C-6.68136719 11.27503906 -7.67523438 10.98757812 -8.69921875 10.69140625 C-9.45847656 10.46324219 -10.21773438 10.23507813 -11 10 C-10.01 9.34 -9.02 8.68 -8 8 C-8.66 6.68 -9.32 5.36 -10 4 C-9.01 3.34 -8.02 2.68 -7 2 C-6.67 2.33 -6.34 2.66 -6 3 C-3.66702567 3.04092937 -1.33294775 3.04241723 1 3 C0.67 2.01 0.34 1.02 0 0 Z " fill="#0F4A55" transform="translate(387,49)"/>
<path d="M0 0 C1 1 1 1 1.12025452 3.13233948 C1.1169236 4.54131752 1.1169236 4.54131752 1.11352539 5.97875977 C1.11344986 7.03978409 1.11337433 8.10080841 1.11329651 9.19398499 C1.10813522 10.348134 1.10297394 11.50228302 1.09765625 12.69140625 C1.0962413 13.86638168 1.09482635 15.04135712 1.09336853 16.25193787 C1.08774992 20.02215064 1.07519426 23.79230504 1.0625 27.5625 C1.0574874 30.11132727 1.05292408 32.66015547 1.04882812 35.20898438 C1.03777444 41.47267633 1.02101821 47.73633399 1 54 C0.67 54 0.34 54 0 54 C-0.33 36.84 -0.66 19.68 -1 2 C-6.74813012 2.36063799 -6.74813012 2.36063799 -9 5 C-10.32 3.68 -11.64 2.36 -13 1 C-8.58300512 -0.10424872 -4.52642225 -0.15088074 0 0 Z " fill="#566E6F" transform="translate(166,26)"/>
<path d="M0 0 C0.66 0.66 1.32 1.32 2 2 C-3.53123367 9.60345378 -7.50429102 13.96520522 -17 16 C-19.9375 15.625 -19.9375 15.625 -22 15 C-20 13 -20 13 -16.9375 12.5 C-15.968125 12.335 -14.99875 12.17 -14 12 C-13.67 11.34 -13.34 10.68 -13 10 C-12.01 10.33 -11.02 10.66 -10 11 C-9.67 9.68 -9.34 8.36 -9 7 C-7.35 6.67 -5.7 6.34 -4 6 C-4 4.68 -4 3.36 -4 2 C-2.68 2 -1.36 2 0 2 C0 1.34 0 0.68 0 0 Z " fill="#2C5A5E" transform="translate(111,65)"/>
<path d="M0 0 C4.29 0 8.58 0 13 0 C13 0.33 13 0.66 13 1 C8.545 1.495 8.545 1.495 4 2 C4.66 3.98 5.32 5.96 6 8 C5.01 8 4.02 8 3 8 C3 8.66 3 9.32 3 10 C2.01 10 1.02 10 0 10 C-0.33 10.99 -0.66 11.98 -1 13 C-1.66 13 -2.32 13 -3 13 C-3.93045933 10.44855176 -4.08564091 9.25993522 -3.22265625 6.640625 C-2.1484375 4.42708333 -1.07421875 2.21354167 0 0 Z " fill="#25555E" transform="translate(212,27)"/>
<path d="M0 0 C1.65 0.66 3.3 1.32 5 2 C5.04254356 3.99954746 5.04080783 6.00041636 5 8 C4 9 4 9 1.77514648 9.11352539 C0.81680908 9.10828857 -0.14152832 9.10305176 -1.12890625 9.09765625 C-2.68061523 9.09282227 -2.68061523 9.09282227 -4.26367188 9.08789062 C-5.35228516 9.07951172 -6.44089844 9.07113281 -7.5625 9.0625 C-9.2012207 9.05573242 -9.2012207 9.05573242 -10.87304688 9.04882812 C-13.58208495 9.03699826 -16.29101599 9.02051543 -19 9 C-19 8.34 -19 7.68 -19 7 C-2.19101124 5.26966292 -2.19101124 5.26966292 3 7 C2.01 4.69 1.02 2.38 0 0 Z " fill="#345860" transform="translate(336,40)"/>
<path d="M0 0 C2.97 0 5.94 0 9 0 C9 5.28 9 10.56 9 16 C13.29 16 17.58 16 22 16 C23.09658936 19.28976808 22.79953138 20.71303767 22 24 C21.01 23.67 20.02 23.34 19 23 C19.33 21.35 19.66 19.7 20 18 C16.04 18 12.08 18 8 18 C8 12.39 8 6.78 8 1 C5.36 1 2.72 1 0 1 C0 0.67 0 0.34 0 0 Z " fill="#3F6468" transform="translate(417,11)"/>
<path d="M0 0 C2 2 2 2 2.33984375 3.984375 C2.82425438 6.19917359 2.82425438 6.19917359 5.06640625 7.265625 C5.89011719 7.59046875 6.71382813 7.9153125 7.5625 8.25 C8.38878906 8.58515625 9.21507812 8.9203125 10.06640625 9.265625 C11.02353516 9.62914063 11.02353516 9.62914063 12 10 C12 10.66 12 11.32 12 12 C11.06027344 11.98259766 11.06027344 11.98259766 10.1015625 11.96484375 C8.87566406 11.95130859 8.87566406 11.95130859 7.625 11.9375 C6.40683594 11.92009766 6.40683594 11.92009766 5.1640625 11.90234375 C2.95062858 11.85533666 2.95062858 11.85533666 1 13 C1 12.01 1 11.02 1 10 C0.34 9.34 -0.32 8.68 -1 8 C-1.66 7.34 -2.32 6.68 -3 6 C-3 5.01 -3 4.02 -3 3 C-2.34 3 -1.68 3 -1 3 C-0.67 2.01 -0.34 1.02 0 0 Z " fill="#37636B" transform="translate(317,59)"/>
<path d="M0 0 C0.33 0 0.66 0 1 0 C1.33 9.9 1.66 19.8 2 30 C4.62723396 31.31361698 6.72610561 31.21253909 9.6640625 31.31640625 C11.34628906 31.37924805 11.34628906 31.37924805 13.0625 31.44335938 C14.238125 31.48267578 15.41375 31.52199219 16.625 31.5625 C17.80835937 31.60568359 18.99171875 31.64886719 20.2109375 31.69335938 C23.14050328 31.79967426 26.07015588 31.90170642 29 32 C29 32.33 29 32.66 29 33 C19.43 33 9.86 33 0 33 C0 22.11 0 11.22 0 0 Z " fill="#0E3E45" transform="translate(60,47)"/>
<path d="M0 0 C1.93166016 0.01740234 1.93166016 0.01740234 3.90234375 0.03515625 C5.19269531 0.04417969 6.48304688 0.05320312 7.8125 0.0625 C8.81152344 0.07410156 9.81054688 0.08570312 10.83984375 0.09765625 C11.16984375 1.74765625 11.49984375 3.39765625 11.83984375 5.09765625 C10.84984375 5.42765625 9.85984375 5.75765625 8.83984375 6.09765625 C8.50984375 5.10765625 8.17984375 4.11765625 7.83984375 3.09765625 C5.85984375 3.09765625 3.87984375 3.09765625 1.83984375 3.09765625 C1.50984375 5.07765625 1.17984375 7.05765625 0.83984375 9.09765625 C-1.91676713 6.60781416 -3.7676208 4.89216559 -4.16015625 1.09765625 C-3.16015625 0.09765625 -3.16015625 0.09765625 0 0 Z " fill="#2B565E" transform="translate(176.16015625,26.90234375)"/>
<path d="M0 0 C0.33 0 0.66 0 1 0 C1 3.63 1 7.26 1 11 C0.01 11.33 -0.98 11.66 -2 12 C-2 12.66 -2 13.32 -2 14 C-3.32 14 -4.64 14 -6 14 C-6.66 15.32 -7.32 16.64 -8 18 C-8.721875 17.690625 -9.44375 17.38125 -10.1875 17.0625 C-12.80307309 16.07439461 -15.25118982 15.4712246 -18 15 C-18 14.01 -18 13.02 -18 12 C-17.19175781 12.02320312 -16.38351563 12.04640625 -15.55078125 12.0703125 C-14.48214844 12.08835937 -13.41351563 12.10640625 -12.3125 12.125 C-11.25675781 12.14820312 -10.20101562 12.17140625 -9.11328125 12.1953125 C-5.97748141 11.99858729 -3.82354627 11.33057654 -1 10 C-0.67 6.7 -0.34 3.4 0 0 Z " fill="#346166" transform="translate(153,55)"/>
<path d="M0 0 C0 1.32 0 2.64 0 4 C-0.99 4 -1.98 4 -3 4 C-3.33 5.32 -3.66 6.64 -4 8 C-6.875 8.625 -6.875 8.625 -10 9 C-10.66 8.34 -11.32 7.68 -12 7 C-11.34 6.67 -10.68 6.34 -10 6 C-10.66 5.01 -11.32 4.02 -12 3 C-10.5682384 2.30062798 -9.12932968 1.61587282 -7.6875 0.9375 C-6.48673828 0.36322266 -6.48673828 0.36322266 -5.26171875 -0.22265625 C-3 -1 -3 -1 0 0 Z " fill="#1B5661" transform="translate(395,31)"/>
<path d="M0 0 C0.99 0 1.98 0 3 0 C2.98715051 3.42438911 2.80072775 6.66273872 2 10 C-2.08384623 13.5602762 -6.63811881 13.32437219 -11.828125 13.30078125 C-14 13 -14 13 -16 11 C-11.71 11 -7.42 11 -3 11 C-2.67 9.68 -2.34 8.36 -2 7 C-1.33847444 4.6652039 -0.67258667 2.33163378 0 0 Z " fill="#5E8285" transform="translate(438,70)"/>
<path d="M0 0 C5.66261699 1.24577574 8.87452052 2.87452052 13 7 C13.875 9.3125 13.875 9.3125 14 11 C14.66 11 15.32 11 16 11 C15.67 11.66 15.34 12.32 15 13 C14.01 12.67 13.02 12.34 12 12 C10.8125 9.4375 10.8125 9.4375 10 7 C8.68 7 7.36 7 6 7 C6 5.68 6 4.36 6 3 C3.13275314 3.57344937 2.1385485 3.8614515 0 6 C0 5.01 0 4.02 0 3 C-0.99 2.67 -1.98 2.34 -3 2 C-2.01 2 -1.02 2 0 2 C0 1.34 0 0.68 0 0 Z " fill="#4A6E71" transform="translate(335,26)"/>
<path d="M0 0 C0.33 0 0.66 0 1 0 C1 16.5 1 33 1 50 C0.34 50 -0.32 50 -1 50 C-1.495 48.515 -1.495 48.515 -2 47 C-1.67 46.34 -1.34 45.68 -1 45 C-0.91582953 43.62132397 -0.8927433 42.23863152 -0.90234375 40.85742188 C-0.90729858 39.57599304 -0.90729858 39.57599304 -0.91235352 38.26867676 C-0.92065186 37.34470093 -0.9289502 36.4207251 -0.9375 35.46875 C-0.94128662 34.52189331 -0.94507324 33.57503662 -0.94897461 32.5994873 C-0.96122192 29.56627942 -0.97985245 26.5331651 -1 23.5 C-1.02650046 19.51041926 -1.04654485 15.52088528 -1.0625 11.53125 C-1.07079834 10.60727417 -1.07909668 9.68329834 -1.08764648 8.73132324 C-1.09094971 7.87703735 -1.09425293 7.02275146 -1.09765625 6.14257812 C-1.10289307 5.38916138 -1.10812988 4.63574463 -1.11352539 3.85949707 C-1 2 -1 2 0 0 Z " fill="#547474" transform="translate(281,7)"/>
<path d="M0 0 C1.33804687 0.17982422 1.33804687 0.17982422 2.703125 0.36328125 C3.37859375 0.47027344 4.0540625 0.57726562 4.75 0.6875 C4.42 2.3375 4.09 3.9875 3.75 5.6875 C4.41 6.0175 5.07 6.3475 5.75 6.6875 C3.75 7.6875 3.75 7.6875 0.75 7.6875 C0.09 7.3575 -0.57 7.0275 -1.25 6.6875 C-1.25 5.3675 -1.25 4.0475 -1.25 2.6875 C-2.673125 2.9659375 -2.673125 2.9659375 -4.125 3.25 C-7.25 3.6875 -7.25 3.6875 -9.25 2.6875 C-6.03037108 -0.23875152 -4.27288159 -0.61844339 0 0 Z " fill="#2B5F69" transform="translate(371.25,27.3125)"/>
<path d="M0 0 C-0.33 1.32 -0.66 2.64 -1 4 C-1.66 3.34 -2.32 2.68 -3 2 C-8.38395725 1.07173151 -13.545775 0.90260312 -19 1 C-18.67 0.01 -18.34 -0.98 -18 -2 C-11.71621987 -3.33697449 -5.83299143 -2.91649572 0 0 Z " fill="#4B6F75" transform="translate(390,27)"/>
<path d="M0 0 C0.99 0 1.98 0 3 0 C3 0.99 3 1.98 3 3 C3.66 3 4.32 3 5 3 C7 6 7 6 7 9 C7.66 9 8.32 9 9 9 C8.67 10.32 8.34 11.64 8 13 C6.0625 12.3125 6.0625 12.3125 4 11 C3.25 8.375 3.25 8.375 3 6 C0.69 6.33 -1.62 6.66 -4 7 C-3.34 5.35 -2.68 3.7 -2 2 C-1.34 2 -0.68 2 0 2 C0 1.34 0 0.68 0 0 Z " fill="#38656A" transform="translate(247,7)"/>
<path d="M0 0 C2.97 0.495 2.97 0.495 6 1 C6.33 2.98 6.66 4.96 7 7 C7.99 7.33 8.98 7.66 10 8 C11.6900877 11.80269732 12.19873962 14.05272168 11 18 C10.31164062 16.89591797 10.31164062 16.89591797 9.609375 15.76953125 C8.99578125 14.79371094 8.3821875 13.81789063 7.75 12.8125 C6.84507812 11.36810547 6.84507812 11.36810547 5.921875 9.89453125 C4.04028105 6.95794909 4.04028105 6.95794909 1.765625 4.26171875 C0 2 0 2 0 0 Z " fill="#3C6468" transform="translate(255,43)"/>
<path d="M0 0 C3.63 0 7.26 0 11 0 C11 0.66 11 1.32 11 2 C11.66 2 12.32 2 13 2 C12.54636829 3.58468677 12.08688548 5.16769924 11.625 6.75 C11.36976563 7.63171875 11.11453125 8.5134375 10.8515625 9.421875 C10.0790066 11.76080572 9.16374324 13.83442562 8 16 C7 14 7 14 7.5625 10.5 C7.706875 9.345 7.85125 8.19 8 7 C7.34 6.34 6.68 5.68 6 5 C6.33 4.67 6.66 4.34 7 4 C4.69 3.01 2.38 2.02 0 1 C0 0.67 0 0.34 0 0 Z " fill="#6C9599" transform="translate(215,26)"/>
<path d="M0 0 C1.32 0.66 2.64 1.32 4 2 C4 4.31 4 6.62 4 9 C2.51793505 8.745504 1.03931385 8.47088238 -0.4375 8.1875 C-1.26121094 8.03667969 -2.08492188 7.88585937 -2.93359375 7.73046875 C-3.61550781 7.48941406 -4.29742187 7.24835938 -5 7 C-5.33 6.01 -5.66 5.02 -6 4 C-4.68 3.34 -3.36 2.68 -2 2 C-2 2.66 -2 3.32 -2 4 C-1.01 4 -0.02 4 1 4 C0.34 3.67 -0.32 3.34 -1 3 C-0.67 2.01 -0.34 1.02 0 0 Z " fill="#0C4B57" transform="translate(315,67)"/>
<path d="M0 0 C2.31 0 4.62 0 7 0 C7 0.99 7 1.98 7 3 C7.31088368 4.67099977 7.64080332 6.33871537 8 8 C7.01 8.495 7.01 8.495 6 9 C5.67 8.67 5.34 8.34 5 8 C3.67405895 7.63837971 2.34061543 7.30271961 1 7 C1.33 6.34 1.66 5.68 2 5 C1.34 4.67 0.68 4.34 0 4 C0 2.68 0 1.36 0 0 Z " fill="#0C4C56" transform="translate(216,29)"/>
<path d="M0 0 C2.0625 0.4375 2.0625 0.4375 4 1 C3.67 1.99 3.34 2.98 3 4 C3 4.99 3 5.98 3 7 C3.66 7 4.32 7 5 7 C4.67 7.99 4.34 8.98 4 10 C1.97954558 9.39816251 -0.02111039 8.72693904 -2 8 C-2.33 7.34 -2.66 6.68 -3 6 C-1.44444444 1.44444444 -1.44444444 1.44444444 0 0 Z " fill="#4B7276" transform="translate(358,68)"/>
<path d="M0 0 C0.66 0 1.32 0 2 0 C2 1.65 2 3.3 2 5 C2.66 5.33 3.32 5.66 4 6 C4 6.66 4 7.32 4 8 C-0.62 8 -5.24 8 -10 8 C-6.68366796 5.51275097 -3.70626844 3.76890085 0 2 C0 1.34 0 0.68 0 0 Z " fill="#0D4D58" transform="translate(435,29)"/>
<path d="M0 0 C0.5775 0.165 1.155 0.33 1.75 0.5 C4.26664369 1.14462031 4.26664369 1.14462031 8 1 C7.34 3.31 6.68 5.62 6 8 C5.67 7.34 5.34 6.68 5 6 C3.68 6.33 2.36 6.66 1 7 C0.67 4.69 0.34 2.38 0 0 Z " fill="#0B4D59" transform="translate(387,70)"/>
<path d="M0 0 C2 1 2 1 3.125 3.25 C4.00513321 6.01613295 4.1645438 8.12048351 4 11 C1.5625 10.25 1.5625 10.25 -1 9 C-1.9375 7.1875 -1.9375 7.1875 -2 5 C-1.0625 2.25 -1.0625 2.25 0 0 Z " fill="#46797F" transform="translate(190,35)"/>
<path d="M0 0 C0 0.99 0 1.98 0 3 C0.66 3 1.32 3 2 3 C2.33 5.31 2.66 7.62 3 10 C1 9 1 9 0.3125 7 C-0.120625 6.34 -0.55375 5.68 -1 5 C-4.56206661 4.18129815 -4.56206661 4.18129815 -8 4 C-8 3.34 -8 2.68 -8 2 C-5.09399739 0.74335022 -3.20395416 0 0 0 Z " fill="#476A6E" transform="translate(349,65)"/>
<path d="M0 0 C1.65 1.65 3.3 3.3 5 5 C4.01 5.495 4.01 5.495 3 6 C2.67 5.34 2.34 4.68 2 4 C0.68 5.32 -0.64 6.64 -2 8 C-2.33 7.34 -2.66 6.68 -3 6 C-3.66 6 -4.32 6 -5 6 C-5.33 4.68 -5.66 3.36 -6 2 C-4.02 1.34 -2.04 0.68 0 0 Z " fill="#285D67" transform="translate(105,44)"/>
<path d="M0 0 C0.33 1.65 0.66 3.3 1 5 C-0.98 5.66 -2.96 6.32 -5 7 C-7.1385485 4.8614515 -7.42655063 3.86724686 -8 1 C-5.29120665 -0.35439668 -2.99066732 -0.06501451 0 0 Z " fill="#0B4C56" transform="translate(370,30)"/>
<path d="M0 0 C0.66 0 1.32 0 2 0 C2.59732819 2.76264289 3 5.16032769 3 8 C2.34 8.66 1.68 9.32 1 10 C-0.5625 8.3125 -0.5625 8.3125 -2 6 C-1.58974359 1.58974359 -1.58974359 1.58974359 0 0 Z " fill="#265A64" transform="translate(308,64)"/>
<path d="M0 0 C0.66 0 1.32 0 2 0 C2.309375 0.78375 2.61875 1.5675 2.9375 2.375 C3.92875038 4.92330128 3.92875038 4.92330128 5 7 C3.68 7.33 2.36 7.66 1 8 C1 7.34 1 6.68 1 6 C-0.65 6 -2.3 6 -4 6 C-4 5.01 -4 4.02 -4 3 C-3.34 3.33 -2.68 3.66 -2 4 C-0.7018576 2.8509288 -0.7018576 2.8509288 0 0 Z " fill="#0C474F" transform="translate(381,31)"/>
<path d="M0 0 C0 1.65 0 3.3 0 5 C-0.33 4.01 -0.66 3.02 -1 2 C-5.47883696 2.44703986 -5.47883696 2.44703986 -9 5 C-10.32 3.68 -11.64 2.36 -13 1 C-8.59085217 -0.10228696 -4.51617599 -0.07654536 0 0 Z " fill="#3F6264" transform="translate(166,26)"/>
<path d="M0 0 C0.66 0.33 1.32 0.66 2 1 C1.34 2.98 0.68 4.96 0 7 C-2.31 7.33 -4.62 7.66 -7 8 C-7 7.01 -7 6.02 -7 5 C-6.030625 4.54625 -5.06125 4.0925 -4.0625 3.625 C-0.92920418 2.34213779 -0.92920418 2.34213779 0 0 Z " fill="#376166" transform="translate(94,31)"/>
<path d="M0 0 C-0.33 0.99 -0.66 1.98 -1 3 C-9.57142857 3.14285714 -9.57142857 3.14285714 -13 2 C-13.33 2.66 -13.66 3.32 -14 4 C-14 3.01 -14 2.02 -14 1 C-9.23692563 0.04738513 -4.8333472 -0.08333357 0 0 Z " fill="#49696D" transform="translate(133,26)"/>
<path d="M0 0 C0.33 0.66 0.66 1.32 1 2 C1.66 2 2.32 2 3 2 C3 2.66 3 3.32 3 4 C3.61875 4.12375 4.2375 4.2475 4.875 4.375 C7 5 7 5 9 7 C7.375 7.8125 7.375 7.8125 5 8 C2.75390165 6.53181864 0.97621323 4.84147142 -1 3 C-0.67 2.01 -0.34 1.02 0 0 Z " fill="#305A60" transform="translate(415,73)"/>
<path d="M0 0 C3.13269705 3.13269705 3.05494397 5.97328423 3.0625 10.25 C3.041875 11.4875 3.02125 12.725 3 14 C1 13 1 13 0.37890625 11.234375 C-0.02399618 8.85849677 -0.09791478 6.65820483 -0.0625 4.25 C-0.05347656 3.45078125 -0.04445313 2.6515625 -0.03515625 1.828125 C-0.02355469 1.22484375 -0.01195312 0.6215625 0 0 Z " fill="#718F92" transform="translate(351,39)"/>
<path d="M0 0 C-0.33 1.65 -0.66 3.3 -1 5 C-1.66 5 -2.32 5 -3 5 C-3.33 6.65 -3.66 8.3 -4 10 C-4.33 10 -4.66 10 -5 10 C-5.33 7.03 -5.66 4.06 -6 1 C-3 0 -3 0 0 0 Z " fill="#104A53" transform="translate(207,80)"/>
<path d="M0 0 C0.99 0.33 1.98 0.66 3 1 C1.55049545 4.7910119 -0.15172566 8.3874638 -2 12 C-3.06106444 8.81680668 -2.96156637 7.98060942 -2.125 4.875 C-1.94195312 4.17117187 -1.75890625 3.46734375 -1.5703125 2.7421875 C-1 1 -1 1 0 0 Z " fill="#5B7F83" transform="translate(209,73)"/>
<path d="M0 0 C0.66 0.33 1.32 0.66 2 1 C1.67 2.65 1.34 4.3 1 6 C0.01 6.33 -0.98 6.66 -2 7 C-2.28875 6.38125 -2.5775 5.7625 -2.875 5.125 C-3.93720042 2.86674235 -3.93720042 2.86674235 -6 1 C-4.7934375 1.0309375 -4.7934375 1.0309375 -3.5625 1.0625 C-1.06645115 1.29633621 -1.06645115 1.29633621 0 0 Z " fill="#48747D" transform="translate(388,60)"/>
<path d="M0 0 C0.66 1.32 1.32 2.64 2 4 C2.99 3.67 3.98 3.34 5 3 C5.625 5.375 5.625 5.375 6 8 C5.34 8.66 4.68 9.32 4 10 C4 9.34 4 8.68 4 8 C2.35 7.67 0.7 7.34 -1 7 C-0.67 4.69 -0.34 2.38 0 0 Z " fill="#437077" transform="translate(97,55)"/>
<path d="M0 0 C1.48206495 0.254496 2.96068615 0.52911762 4.4375 0.8125 C5.67306641 1.03873047 5.67306641 1.03873047 6.93359375 1.26953125 C7.95646484 1.63111328 7.95646484 1.63111328 9 2 C9.33 2.99 9.66 3.98 10 5 C7.25 5.3125 7.25 5.3125 4 5 C1.625 2.5 1.625 2.5 0 0 Z " fill="#3C6568" transform="translate(310,74)"/>
<path d="M0 0 C1 3 1 3 1 5 C1.66 5.33 2.32 5.66 3 6 C2.1028125 6.37125 2.1028125 6.37125 1.1875 6.75 C-1.28647521 8.16370012 -2.43370255 9.65055383 -4 12 C-4.6875 10.1875 -4.6875 10.1875 -5 8 C-3.6875 6.5625 -3.6875 6.5625 -2 5 C-0.80972016 2.40084462 -0.80972016 2.40084462 0 0 Z " fill="#678B91" transform="translate(204,51)"/>
<path d="M0 0 C0.99 0 1.98 0 3 0 C3.66 1.65 4.32 3.3 5 5 C2.36 5 -0.28 5 -3 5 C-2 2 -2 2 0 0 Z " fill="#29646C" transform="translate(384,48)"/>
<path d="M0 0 C0.33 0 0.66 0 1 0 C1.33 2.64 1.66 5.28 2 8 C3.65 8 5.3 8 7 8 C7 8.33 7 8.66 7 9 C4.36 9 1.72 9 -1 9 C-1.09765625 2.84765625 -1.09765625 2.84765625 -1 1 C-0.67 0.67 -0.34 0.34 0 0 Z " fill="#0C3740" transform="translate(404,28)"/>
<path d="M0 0 C3.63 0 7.26 0 11 0 C11 0.66 11 1.32 11 2 C11.66 2 12.32 2 13 2 C13 2.66 13 3.32 13 4 C11.39482903 3.91266424 9.79078338 3.80447776 8.1875 3.6875 C6.84751953 3.60048828 6.84751953 3.60048828 5.48046875 3.51171875 C3 3 3 3 0 0 Z " fill="#758E8F" transform="translate(215,26)"/>
<path d="M0 0 C0.66 0 1.32 0 2 0 C2.33 1.98 2.66 3.96 3 6 C1.02 6 -0.96 6 -3 6 C-2.01 4.02 -1.02 2.04 0 0 Z " fill="#0D4C53" transform="translate(190,94)"/>
<path d="M0 0 C1.32 0.33 2.64 0.66 4 1 C5.125 4.75 5.125 4.75 4 7 C3.01 6.67 2.02 6.34 1 6 C0.67 4.02 0.34 2.04 0 0 Z " fill="#154A51" transform="translate(191,72)"/>
<path d="M0 0 C0 1.65 0 3.3 0 5 C0.66 5 1.32 5 2 5 C2 6.65 2 8.3 2 10 C-1.2542015 7.16569547 -2.5206753 5.31392226 -3 1 C-1 0 -1 0 0 0 Z " fill="#375E62" transform="translate(123,67)"/>
<path d="M0 0 C0.66 0.33 1.32 0.66 2 1 C2.33 1.99 2.66 2.98 3 4 C2.34 4 1.68 4 1 4 C0.34 5.32 -0.32 6.64 -1 8 C-1.66 8 -2.32 8 -3 8 C-1.125 1.125 -1.125 1.125 0 0 Z " fill="#0F4954" transform="translate(209,41)"/>
<path d="M0 0 C2.0625 0.4375 2.0625 0.4375 4 1 C4 4 4 4 3 7 C2.01 6.67 1.02 6.34 0 6 C-0.38218767 4.34385343 -0.71395102 2.67542976 -1 1 C-0.67 0.67 -0.34 0.34 0 0 Z " fill="#094E5E" transform="translate(361,69)"/>
<path d="M0 0 C0.66 0.33 1.32 0.66 2 1 C0.68 4.3 -0.64 7.6 -2 11 C-3.08719244 7.73842267 -3.29071481 5.41589896 -3 2 C-2.01 1.34 -1.02 0.68 0 0 Z " fill="#7B9295" transform="translate(217,54)"/>
<path d="M0 0 C2.31 0.66 4.62 1.32 7 2 C7 2.33 7 2.66 7 3 C6.21625 3.12375 5.4325 3.2475 4.625 3.375 C1.85942178 3.79117993 1.85942178 3.79117993 0 6 C0 5.01 0 4.02 0 3 C-0.99 2.67 -1.98 2.34 -3 2 C-2.01 2 -1.02 2 0 2 C0 1.34 0 0.68 0 0 Z " fill="#47747B" transform="translate(335,26)"/>
<path d="M0 0 C1.32 0 2.64 0 4 0 C5.75 2 5.75 2 7 4 C4.6875 4.625 4.6875 4.625 2 5 C1.01 4.34 0.02 3.68 -1 3 C-0.67 2.01 -0.34 1.02 0 0 Z " fill="#2D5A60" transform="translate(363,76)"/>
<path d="M0 0 C2.97 0.495 2.97 0.495 6 1 C5.67 2.98 5.34 4.96 5 7 C3.29115995 5.37660195 1.62553283 3.70680947 0 2 C0 1.34 0 0.68 0 0 Z " fill="#577D81" transform="translate(255,43)"/>
<path d="M0 0 C2.01822917 0.06510417 4.03645833 0.13020833 6.0546875 0.1953125 C4.9921875 1.7578125 4.9921875 1.7578125 3.0546875 3.1953125 C-0.6328125 2.8828125 -0.6328125 2.8828125 -3.9453125 2.1953125 C-1.9453125 0.1953125 -1.9453125 0.1953125 0 0 Z " fill="#4B6E71" transform="translate(92.9453125,77.8046875)"/>
<path d="M0 0 C1.32 0.33 2.64 0.66 4 1 C2.71186658 1.83878455 1.41936744 2.67086783 0.125 3.5 C-0.59429687 3.9640625 -1.31359375 4.428125 -2.0546875 4.90625 C-4 6 -4 6 -6 6 C-6 5.01 -6 4.02 -6 3 C-5.195625 2.87625 -4.39125 2.7525 -3.5625 2.625 C-2.716875 2.41875 -1.87125 2.2125 -1 2 C-0.67 1.34 -0.34 0.68 0 0 Z " fill="#7E9C9F" transform="translate(347,75)"/>
<path d="M0 0 C1.1446875 0.2475 1.1446875 0.2475 2.3125 0.5 C5.03596236 1.09145396 5.03596236 1.09145396 8 1 C8 1.99 8 2.98 8 4 C4.41465407 4 2.92504174 2.97637955 0 1 C0 0.67 0 0.34 0 0 Z " fill="#0A5160" transform="translate(381,57)"/>
<path d="M0 0 C2.0625 0.4375 2.0625 0.4375 4 1 C4 1.66 4 2.32 4 3 C-0.62 3 -5.24 3 -10 3 C-10 2.67 -10 2.34 -10 2 C-9.04287109 1.90912109 -9.04287109 1.90912109 -8.06640625 1.81640625 C-6.82697266 1.69072266 -6.82697266 1.69072266 -5.5625 1.5625 C-4.73878906 1.48128906 -3.91507812 1.40007813 -3.06640625 1.31640625 C-1.01337975 1.21069185 -1.01337975 1.21069185 0 0 Z " fill="#11454F" transform="translate(435,34)"/>
<path d="M0 0 C2.475 0.495 2.475 0.495 5 1 C5 1.66 5 2.32 5 3 C6.65 3.33 8.3 3.66 10 4 C5.82412255 5.39195915 3.86525224 3.82323219 0 2 C0 1.34 0 0.68 0 0 Z " fill="#547977" transform="translate(365,54)"/>
<path d="M0 0 C0.33 0.66 0.66 1.32 1 2 C1.99 2 2.98 2 4 2 C4 4.64 4 7.28 4 10 C0 4 0 4 0 0 Z " fill="#668689" transform="translate(177,40)"/>
<path d="M0 0 C2.31 0 4.62 0 7 0 C5.68 1.32 4.36 2.64 3 4 C2.01 3.34 1.02 2.68 0 2 C0 1.34 0 0.68 0 0 Z " fill="#0E494F" transform="translate(180,89)"/>
<path d="M0 0 C0.66 0.66 1.32 1.32 2 2 C0.69593116 4.01920337 -0.63823419 6.01924973 -2 8 C-2.33 8 -2.66 8 -3 8 C-3.33 6.02 -3.66 4.04 -4 2 C-2.68 2 -1.36 2 0 2 C0 1.34 0 0.68 0 0 Z " fill="#456A6C" transform="translate(111,65)"/>
<path d="M0 0 C0.33 0 0.66 0 1 0 C1 3.96 1 7.92 1 12 C0.34 12 -0.32 12 -1 12 C-2.09898702 8.70303895 -1.87124444 7.59505097 -1.0625 4.3125 C-0.86785156 3.50425781 -0.67320312 2.69601563 -0.47265625 1.86328125 C-0.31667969 1.24839844 -0.16070312 0.63351563 0 0 Z " fill="#57979D" transform="translate(281,45)"/>
<path d="M0 0 C0 0.99 0 1.98 0 3 C-1.8125 3.6875 -1.8125 3.6875 -4 4 C-5.75 2.5625 -5.75 2.5625 -7 1 C-4.53721199 -0.231394 -2.7204945 -0.07159196 0 0 Z " fill="#4D7178" transform="translate(396,38)"/>
<path d="M0 0 C0.99 0.99 1.98 1.98 3 3 C1.35 4.65 -0.3 6.3 -2 8 C-1.125 1.125 -1.125 1.125 0 0 Z " fill="#709092" transform="translate(204,84)"/>
<path d="M0 0 C0.33 0.99 0.66 1.98 1 3 C0.01 3.99 -0.98 4.98 -2 6 C-2.66 5.67 -3.32 5.34 -4 5 C-3.6875 3.0625 -3.6875 3.0625 -3 1 C-2.01 0.67 -1.02 0.34 0 0 Z " fill="#41676A" transform="translate(397,72)"/>
<path d="M0 0 C2.475 0.99 2.475 0.99 5 2 C4.67 3.65 4.34 5.3 4 7 C1.49962266 4.82575883 0.56371414 3.26954202 0 0 Z " fill="#527979" transform="translate(336,40)"/>
<path d="M0 0 C2.66666667 0.66666667 5.33333333 1.33333333 8 2 C8 2.66 8 3.32 8 4 C5.69 3.67 3.38 3.34 1 3 C0.67 2.01 0.34 1.02 0 0 Z " fill="#517073" transform="translate(390,27)"/>
</svg>
